<mxfile host="65bd71144e">
    <diagram id="kSmwprJ-x-fa61wc6GpM" name="Page-1">
        <mxGraphModel dx="2091" dy="672" grid="1" gridSize="10" guides="1" tooltips="1" connect="1" arrows="1" fold="1" page="1" pageScale="1" pageWidth="1169" pageHeight="827" math="0" shadow="0">
            <root>
                <mxCell id="0"/>
                <mxCell id="1" parent="0"/>
                <mxCell id="2" value="Computer : Send Thread&amp;nbsp;" style="shape=umlLifeline;perimeter=lifelinePerimeter;whiteSpace=wrap;html=1;container=1;dropTarget=0;collapsible=0;recursiveResize=0;outlineConnect=0;portConstraint=eastwest;newEdgeStyle={&quot;curved&quot;:0,&quot;rounded&quot;:0};" vertex="1" parent="1">
                    <mxGeometry x="160" y="240" width="200" height="1500" as="geometry"/>
                </mxCell>
                <mxCell id="51" value="" style="html=1;points=[[0,0,0,0,5],[0,1,0,0,-5],[1,0,0,0,5],[1,1,0,0,-5]];perimeter=orthogonalPerimeter;outlineConnect=0;targetShapes=umlLifeline;portConstraint=eastwest;newEdgeStyle={&quot;curved&quot;:0,&quot;rounded&quot;:0};" vertex="1" parent="2">
                    <mxGeometry x="95.99000000000001" y="240" width="10" height="40" as="geometry"/>
                </mxCell>
                <mxCell id="52" value="ReadMusicSheet()" style="html=1;align=left;spacingLeft=2;endArrow=block;rounded=0;edgeStyle=orthogonalEdgeStyle;curved=0;rounded=0;" edge="1" target="51" parent="2">
                    <mxGeometry x="-0.0035" relative="1" as="geometry">
                        <mxPoint x="100.99000000000001" y="220" as="sourcePoint"/>
                        <Array as="points">
                            <mxPoint x="130.99" y="250"/>
                        </Array>
                        <mxPoint as="offset"/>
                    </mxGeometry>
                </mxCell>
                <mxCell id="4" value="Computer : Receive Thread&amp;nbsp;" style="shape=umlLifeline;perimeter=lifelinePerimeter;whiteSpace=wrap;html=1;container=1;dropTarget=0;collapsible=0;recursiveResize=0;outlineConnect=0;portConstraint=eastwest;newEdgeStyle={&quot;curved&quot;:0,&quot;rounded&quot;:0};" vertex="1" parent="1">
                    <mxGeometry x="-120" y="240" width="200" height="1500" as="geometry"/>
                </mxCell>
                <mxCell id="5" value="Robot : Motors&amp;nbsp;" style="shape=umlLifeline;perimeter=lifelinePerimeter;whiteSpace=wrap;html=1;container=1;dropTarget=0;collapsible=0;recursiveResize=0;outlineConnect=0;portConstraint=eastwest;newEdgeStyle={&quot;curved&quot;:0,&quot;rounded&quot;:0};" vertex="1" parent="1">
                    <mxGeometry x="730" y="240" width="200" height="1500" as="geometry"/>
                </mxCell>
                <mxCell id="11" style="edgeStyle=none;html=1;" edge="1" parent="1" source="10" target="2">
                    <mxGeometry relative="1" as="geometry">
                        <mxPoint x="419.75" y="320" as="targetPoint"/>
                    </mxGeometry>
                </mxCell>
                <mxCell id="12" style="edgeStyle=none;html=1;" edge="1" parent="1" source="10" target="4">
                    <mxGeometry relative="1" as="geometry">
                        <mxPoint x="179.75" y="320" as="targetPoint"/>
                    </mxGeometry>
                </mxCell>
                <mxCell id="15" value="Start Playing" style="edgeLabel;html=1;align=center;verticalAlign=middle;resizable=0;points=[];" vertex="1" connectable="0" parent="12">
                    <mxGeometry x="0.0221" relative="1" as="geometry">
                        <mxPoint x="3" as="offset"/>
                    </mxGeometry>
                </mxCell>
                <mxCell id="10" value="User" style="shape=umlActor;verticalLabelPosition=bottom;verticalAlign=top;html=1;" vertex="1" parent="1">
                    <mxGeometry x="-280" y="290" width="30" height="60" as="geometry"/>
                </mxCell>
                <mxCell id="37" value="[ remaining sheet music &amp;gt; 0 ||&amp;nbsp;&lt;span style=&quot;background-color: transparent;&quot;&gt;remaining buffer &amp;gt; 0 ]&lt;/span&gt;" style="text;html=1;align=center;verticalAlign=middle;resizable=0;points=[];autosize=1;strokeColor=none;fillColor=none;" vertex="1" parent="1">
                    <mxGeometry x="-280.25" y="420" width="300" height="30" as="geometry"/>
                </mxCell>
                <mxCell id="50" value="main loop" style="shape=umlFrame;whiteSpace=wrap;html=1;pointerEvents=0;width=140;height=20;" vertex="1" parent="1">
                    <mxGeometry x="-280.25" y="400" width="1210.25" height="1720" as="geometry"/>
                </mxCell>
                <mxCell id="54" value="alt" style="shape=umlFrame;whiteSpace=wrap;html=1;pointerEvents=0;width=140;height=20;" vertex="1" parent="1">
                    <mxGeometry y="540" width="520" height="180" as="geometry"/>
                </mxCell>
                <mxCell id="71" value="" style="endArrow=none;dashed=1;html=1;dashPattern=1 3;strokeWidth=2;fontFamily=Helvetica;fontSize=12;fontColor=default;autosize=1;resizable=0;" edge="1" parent="1">
                    <mxGeometry width="50" height="50" relative="1" as="geometry">
                        <mxPoint x="-360" y="760" as="sourcePoint"/>
                        <mxPoint x="1000" y="760" as="targetPoint"/>
                    </mxGeometry>
                </mxCell>
            </root>
        </mxGraphModel>
    </diagram>
</mxfile>